<svg width="65" height="32" viewBox="0 0 65 32" fill="none" xmlns="http://www.w3.org/2000/svg">
    <path d="M29.875 25V17.6C29.875 17.0399 29.875 16.7599 29.984 16.546C30.0799 16.3578 30.2328 16.2049 30.421 16.109C30.6349 16 30.9149 16 31.475 16H34.275C34.8351 16 35.1151 16 35.329 16.109C35.5172 16.2049 35.6701 16.3578 35.766 16.546C35.875 16.7599 35.875 17.0399 35.875 17.6V25M31.8927 6.764L25.1104 12.0391C24.657 12.3917 24.4303 12.5681 24.267 12.7889C24.1224 12.9844 24.0146 13.2048 23.949 13.4391C23.875 13.7035 23.875 13.9907 23.875 14.5651V21.8C23.875 22.9201 23.875 23.4801 24.093 23.908C24.2847 24.2843 24.5907 24.5903 24.967 24.782C25.3948 25 25.9549 25 27.075 25H38.675C39.7951 25 40.3552 25 40.783 24.782C41.1593 24.5903 41.4653 24.2843 41.657 23.908C41.875 23.4801 41.875 22.9201 41.875 21.8V14.5651C41.875 13.9907 41.875 13.7035 41.801 13.4391C41.7354 13.2048 41.6276 12.9844 41.483 12.7889C41.3197 12.5681 41.093 12.3917 40.6396 12.0391L33.8573 6.764C33.506 6.49075 33.3303 6.35412 33.1363 6.3016C32.9652 6.25526 32.7848 6.25526 32.6137 6.3016C32.4197 6.35412 32.244 6.49075 31.8927 6.764Z"
          stroke="#C6C6C6" stroke-width="2" stroke-linecap="round" stroke-linejoin="round"/>
</svg>
