<svg fill="none" height="42" viewBox="0 0 43 42" width="43"
    xmlns="http://www.w3.org/2000/svg">
    <path clip-rule="evenodd" d="M17.8028 0.191767C8.90161 2.08219 2.40155 8.54061 0.77541 17.1095C0.451263 18.8166 0.402589 22.8195 0.686353 24.4115C2.10409 32.3635 7.85814 38.885 15.4649 41.1611C19.4171 42.3434 24.3189 42.2713 28.169 40.9744C34.6266 38.7988 39.8006 33.423 41.6815 26.9348C42.3271 24.7079 42.4986 23.452 42.5 20.9368C42.5063 10.9769 35.7962 2.654 25.9629 0.424242C24.3408 0.0562497 23.5791 -0.0129532 21.3183 0.00182417C19.831 0.0115556 18.249 0.096976 17.8028 0.191767ZM30.8643 13.56C29.1797 14.3241 28.6437 16.6054 29.8202 18.0032C31.1212 19.5487 33.2195 19.4403 34.4623 17.7637C34.7441 17.3836 34.8395 16.988 34.8395 16.2C34.8395 15.069 34.5436 14.4838 33.6249 13.7981C33.0282 13.3528 31.594 13.2292 30.8643 13.56ZM11.0423 17.1753C9.5472 17.8395 8.85366 19.8453 9.66619 21.1558C9.85043 21.4531 11.9442 23.6551 14.3191 26.0492C18.9604 30.7283 19.3241 30.9914 20.7708 30.7201C21.6921 30.5473 22.7615 29.534 22.9957 28.6118C23.0992 28.2046 23.1561 27.7794 23.1224 27.6672C23.0887 27.5551 23.0081 27.2199 22.9434 26.9225C22.7983 26.2558 14.2365 17.5566 13.3466 17.1717C12.6252 16.8597 11.7493 16.861 11.0423 17.1753ZM25.0952 19.3369C23.2764 20.1288 22.8468 22.5457 24.2717 23.9703C26.2972 25.995 29.6163 24.1815 29.0834 21.3412C28.9464 20.6115 28.252 19.7227 27.5256 19.3472C26.8973 19.0224 25.8279 19.0179 25.0952 19.3369Z"
        fill="#15B86C"
        fill-rule="evenodd" />
</svg>
