<svg width="65" height="32" viewBox="0 0 65 32" fill="none" xmlns="http://www.w3.org/2000/svg">
    <g clip-path="url(#clip0_3151_329)">
        <path d="M40.375 16.5V10.8C40.375 9.11984 40.375 8.27976 40.048 7.63803C39.7604 7.07354 39.3015 6.6146 38.737 6.32698C38.0952 6 37.2552 6 35.575 6H29.175C27.4948 6 26.6548 6 26.013 6.32698C25.4485 6.6146 24.9896 7.07354 24.702 7.63803C24.375 8.27976 24.375 9.11984 24.375 10.8V21.2C24.375 22.8802 24.375 23.7202 24.702 24.362C24.9896 24.9265 25.4485 25.3854 26.013 25.673C26.6548 26 27.4948 26 29.175 26H32.375M34.375 15H28.375M30.375 19H28.375M36.375 11H28.375M34.875 23L36.875 25L41.375 20.5"
              stroke="#C6C6C6" stroke-width="2" stroke-linecap="round" stroke-linejoin="round"/>
    </g>
    <defs>
        <clipPath id="clip0_3151_329">
            <rect x="0.375" width="64" height="32" rx="16" fill="white"/>
        </clipPath>
    </defs>
</svg>
