<svg width="65" height="32" viewBox="0 0 65 32" fill="none" xmlns="http://www.w3.org/2000/svg">
    <path d="M34.625 15H28.625M30.625 19H28.625M36.625 11H28.625M40.625 10.8V21.2C40.625 22.8802 40.625 23.7202 40.298 24.362C40.0104 24.9265 39.5515 25.3854 38.987 25.673C38.3452 26 37.5052 26 35.825 26H29.425C27.7448 26 26.9048 26 26.263 25.673C25.6985 25.3854 25.2396 24.9265 24.952 24.362C24.625 23.7202 24.625 22.8802 24.625 21.2V10.8C24.625 9.11984 24.625 8.27976 24.952 7.63803C25.2396 7.07354 25.6985 6.6146 26.263 6.32698C26.9048 6 27.7448 6 29.425 6H35.825C37.5052 6 38.3452 6 38.987 6.32698C39.5515 6.6146 40.0104 7.07354 40.298 7.63803C40.625 8.27976 40.625 9.11984 40.625 10.8Z"
          stroke="#C6C6C6" stroke-width="2" stroke-linecap="round" stroke-linejoin="round"/>
</svg>
